<svg width="72" height="90" viewBox="0 0 72 90" fill="none" xmlns="http://www.w3.org/2000/svg">
<path d="M71.9739 35.724C71.8888 43.2574 69.7457 49.917 66.4259 56.2412C61.4938 65.6423 54.744 73.6413 47.068 80.8768C43.9159 83.8511 40.526 86.5775 37.2187 89.3891C36.2548 90.2052 35.7441 90.1952 34.7977 89.4516C24.3276 81.2373 15.0542 71.9038 7.96899 60.5574C4.33874 54.744 1.5372 48.5701 0.480671 41.7252C-1.19425 30.8595 1.50215 21.143 8.54983 12.7283C14.2706 5.90347 21.6212 1.7024 30.4214 0.438072C43.1698 -1.39207 54.0606 2.50356 62.7656 12.0173C68.9446 18.7771 71.8538 26.9013 71.9739 35.724ZM8.97794 35.8843C8.95541 50.7658 20.9953 62.9233 35.7892 62.9659C39.349 62.9834 42.8773 62.2977 46.1715 60.9482C49.4658 59.5988 52.4611 57.6121 54.9856 55.1022C57.5102 52.5923 59.5143 49.6086 60.8829 46.3223C62.2515 43.036 62.9577 39.5118 62.9609 35.9519C62.986 21.1805 50.8985 9.01046 36.1447 8.9704C21.1555 8.93034 9.01299 20.9702 8.97794 35.8843Z" fill="#396C03"/>
</svg>
